<?xml version="1.0" standalone="no"?>
<!DOCTYPE svg PUBLIC "-//W3C//DTD SVG 20010904//EN"
 "http://www.w3.org/TR/2001/REC-SVG-20010904/DTD/svg10.dtd">
<svg version="1.0" xmlns="http://www.w3.org/2000/svg"
 width="180.000000pt" height="180.000000pt" viewBox="0 0 180.000000 180.000000"
 preserveAspectRatio="xMidYMid meet">
<metadata>
Created by potrace 1.15, written by Peter Selinger 2001-2017
</metadata>
<g transform="translate(0.000000,180.000000) scale(0.100000,-0.100000)"
fill="#000000" stroke="none">
<path d="M505 1610 c-214 -104 -402 -196 -418 -204 l-27 -15 0 -494 0 -494
420 -203 420 -203 97 46 c54 25 242 116 418 201 l320 155 3 498 2 499 -407
196 c-225 108 -415 199 -423 202 -8 2 -190 -80 -405 -184z m639 13 c133 -64
302 -145 376 -181 l135 -64 -107 -54 -107 -54 -372 181 c-205 99 -375 182
-377 184 -3 3 191 101 207 104 3 1 113 -51 245 -116z m-144 -199 c201 -97 367
-178 369 -179 2 -2 -30 -20 -71 -41 l-74 -36 -371 178 c-205 99 -373 181 -373
184 0 8 122 69 140 69 9 1 180 -78 380 -175z m-195 -113 l390 -188 5 -169 c5
-160 6 -169 25 -171 11 -2 65 21 120 50 l100 52 3 165 2 166 115 57 c64 31
117 57 120 57 3 0 5 -201 5 -447 l0 -448 -333 -159 c-182 -88 -353 -170 -379
-183 l-48 -23 0 448 0 447 95 48 c73 36 95 52 95 67 0 31 -30 25 -128 -24
l-87 -43 -44 19 c-78 33 -101 -8 -26 -46 l40 -21 2 -448 c2 -246 -1 -447 -5
-446 -4 0 -176 82 -382 183 l-375 182 -3 447 c-1 246 0 447 2 447 3 0 136 -63
297 -140 161 -78 299 -138 307 -135 7 3 12 13 10 22 -3 20 -43 41 -366 196
l-214 103 124 61 c68 34 128 62 133 62 6 0 186 -84 400 -188z m595 -256 l0
-135 -70 -35 c-38 -19 -72 -35 -75 -35 -3 0 -5 61 -5 135 l0 135 68 34 c37 19
70 35 75 36 4 0 7 -61 7 -135z"/>
<path d="M176 711 c-4 -5 -4 -15 -1 -23 7 -18 251 -132 264 -123 6 3 11 14 11
24 0 13 -33 33 -118 74 -118 57 -146 65 -156 48z"/>
<path d="M174 585 c-9 -23 3 -34 73 -65 80 -36 95 -38 91 -7 -2 16 -21 31 -68
54 -73 36 -88 39 -96 18z"/>
</g>
</svg>
